<svg version="1.1" id="Layer_1" xmlns="http://www.w3.org/2000/svg" xmlns:xlink="http://www.w3.org/1999/xlink" x="0px" y="0px"
	 width="100%" viewBox="0 0 286 185" enable-background="new 0 0 286 185" xml:space="preserve">
<path fill="#FAEEE7" opacity="1.000000" stroke="none" 
	d="
M1.000000,62.000000 
	C1.000000,41.333340 1.000000,21.166679 1.000000,1.000014 
	C96.333305,1.000009 191.666611,1.000009 286.999939,1.000005 
	C286.999939,62.666615 286.999939,124.333229 286.999969,185.999878 
	C191.666748,185.999924 96.333496,185.999924 1.000122,185.999969 
	C1.000000,144.833328 1.000000,103.666664 1.000000,62.000000 
M159.008835,10.018806 
	C159.032623,66.313576 159.056427,122.608353 159.030457,179.786758 
	C159.128433,181.378372 159.226410,182.970001 159.351364,184.999847 
	C169.800034,184.999847 179.766205,184.818039 189.720184,185.087326 
	C193.830063,185.198517 195.124039,184.010254 195.091034,179.800507 
	C194.903046,155.821548 194.975082,131.840302 195.013046,107.859924 
	C195.026917,99.095039 193.979263,100.026489 202.612259,100.011604 
	C223.428558,99.975708 244.245926,99.895790 265.060486,100.089699 
	C269.102173,100.127357 270.194122,98.833115 270.078339,94.959686 
	C269.824677,86.474197 269.753571,77.965805 270.100708,69.486946 
	C270.282471,65.047310 268.913177,63.852623 264.505951,63.898621 
	C243.025818,64.122803 221.541458,63.918762 200.060120,64.075203 
	C196.234085,64.103073 194.565369,63.178818 194.928543,59.076572 
	C195.264984,55.276157 194.998001,51.422504 195.000473,47.592297 
	C195.004730,41.008053 195.005936,41.001781 201.381897,41.001110 
	C227.194183,40.998394 253.006470,40.996677 278.818756,41.004581 
	C281.499146,41.005402 284.165375,41.515034 284.065643,37.202236 
	C283.846161,27.715055 283.927979,18.218481 284.039856,8.727547 
	C284.072998,5.913220 283.035553,4.958971 280.248291,4.963087 
	C241.113632,5.020882 201.978806,5.029241 162.844223,4.950068 
	C159.673172,4.943653 158.603012,6.139071 159.008835,10.018806 
M97.498650,79.000000 
	C80.504311,78.999977 63.507835,78.853416 46.517086,79.100494 
	C42.137833,79.164169 40.847130,77.992691 40.895737,73.533829 
	C41.128197,52.210072 40.939171,30.882032 41.061127,9.556437 
	C41.080570,6.155972 40.157146,4.843548 36.573048,4.929598 
	C27.581203,5.145482 18.575157,5.185385 9.586223,4.915569 
	C5.633072,4.796910 4.930875,6.369857 4.936502,9.897587 
	C5.026861,66.545403 5.045101,123.193527 4.910172,179.841171 
	C4.900004,184.110153 6.270633,185.211685 10.324852,185.083542 
	C18.980013,184.809967 27.654961,184.825134 36.311268,185.079910 
	C40.124832,185.192154 41.102112,183.868210 41.073654,180.204620 
	C40.918362,160.212433 41.111408,140.217270 40.909588,120.225914 
	C40.867393,116.046280 42.120491,114.874474 46.256626,114.911827 
	C67.414581,115.102882 88.576103,115.101891 109.734093,114.912445 
	C113.857323,114.875526 115.133667,116.023964 115.091011,120.216644 
	C114.887581,140.207962 115.080772,160.203140 114.926903,180.195343 
	C114.898796,183.846817 115.853638,185.190842 119.679405,185.080460 
	C128.502472,184.825897 137.345810,184.778488 146.165024,185.092728 
	C150.619827,185.251465 152.160294,184.119888 152.114426,179.350067 
	C151.871017,154.027435 151.999985,128.701218 152.000000,103.376251 
	C152.000000,72.553093 151.889877,41.729137 152.112473,10.907586 
	C152.147995,5.989609 150.650772,4.684985 145.921814,4.896233 
	C137.607819,5.267629 129.251526,5.288138 120.939919,4.890884 
	C116.033051,4.656361 114.834625,6.300165 114.891388,11.046926 
	C115.142387,32.036991 114.902252,53.032623 115.085831,74.024086 
	C115.120651,78.005791 113.934380,79.379501 109.988937,79.065414 
	C106.181007,78.762276 102.330025,78.999916 97.498650,79.000000 
z"/>
<path fill="#33272A" opacity="1.000000" stroke="none" 
	d="
M159.080231,178.903122 
	C159.056427,122.608353 159.032623,66.313576 159.391235,9.337797 
	C160.460022,7.774897 161.134735,6.135470 161.834579,6.124674 
	C172.437012,5.961111 183.042740,6.011114 193.711746,6.011114 
	C193.711746,65.586761 193.711746,124.629669 193.711746,183.739746 
	C182.344940,183.739746 171.268204,183.739746 160.528778,183.739746 
	C159.981262,181.911636 159.530746,180.407379 159.080231,178.903122 
z"/>
<path fill="#C3F0CA" opacity="1.000000" stroke="none" 
	d="
M97.998306,79.000000 
	C102.330025,78.999916 106.181007,78.762276 109.988937,79.065414 
	C113.934380,79.379501 115.120651,78.005791 115.085831,74.024086 
	C114.902252,53.032623 115.142387,32.036991 114.891388,11.046926 
	C114.834625,6.300165 116.033051,4.656361 120.939919,4.890884 
	C129.251526,5.288138 137.607819,5.267629 145.921814,4.896233 
	C150.650772,4.684985 152.147995,5.989609 152.112473,10.907586 
	C151.889877,41.729137 152.000000,72.553093 152.000000,103.376251 
	C151.999985,128.701218 151.871017,154.027435 152.114426,179.350067 
	C152.160294,184.119888 150.619827,185.251465 146.165024,185.092728 
	C137.345810,184.778488 128.502472,184.825897 119.679405,185.080460 
	C115.853638,185.190842 114.898796,183.846817 114.926903,180.195343 
	C115.080772,160.203140 114.887581,140.207962 115.091011,120.216644 
	C115.133667,116.023964 113.857323,114.875526 109.734093,114.912445 
	C88.576103,115.101891 67.414581,115.102882 46.256626,114.911827 
	C42.120491,114.874474 40.867393,116.046280 40.909588,120.225914 
	C41.111408,140.217270 40.918362,160.212433 41.073654,180.204620 
	C41.102112,183.868210 40.124832,185.192154 36.311268,185.079910 
	C27.654961,184.825134 18.980013,184.809967 10.324852,185.083542 
	C6.270633,185.211685 4.900004,184.110153 4.910172,179.841171 
	C5.045101,123.193527 5.026861,66.545403 4.936502,9.897587 
	C4.930875,6.369857 5.633072,4.796910 9.586223,4.915569 
	C18.575157,5.185385 27.581203,5.145482 36.573048,4.929598 
	C40.157146,4.843548 41.080570,6.155972 41.061127,9.556437 
	C40.939171,30.882032 41.128197,52.210072 40.895737,73.533829 
	C40.847130,77.992691 42.137833,79.164169 46.517086,79.100494 
	C63.507835,78.853416 80.504311,78.999977 97.998306,79.000000 
M116.000000,84.500000 
	C116.000000,117.559914 116.000000,150.619827 116.000000,183.580170 
	C128.079239,183.580170 139.452194,183.580170 150.737701,183.580170 
	C150.737701,124.273666 150.737701,65.387367 150.737701,6.331415 
	C139.102341,6.331415 127.731567,6.331415 116.000000,6.331415 
	C116.000000,32.274075 116.000000,57.887039 116.000000,84.500000 
M6.000000,75.500000 
	C6.000000,111.557556 6.000000,147.615112 6.000000,183.583160 
	C17.739386,183.583160 28.779255,183.583160 39.741005,183.583160 
	C39.741005,124.279900 39.741005,65.393829 39.741005,6.328386 
	C28.442255,6.328386 17.404638,6.328386 6.000000,6.328386 
	C6.000000,29.269911 6.000000,51.884956 6.000000,75.500000 
M114.999908,84.655434 
	C114.901772,83.217865 114.803642,81.780296 114.706779,80.361267 
	C89.995277,80.361267 65.647995,80.361267 41.420723,80.361267 
	C41.420723,91.760826 41.420723,102.794334 41.420723,113.722183 
	C66.072166,113.722183 90.301964,113.722183 115.000000,113.722183 
	C115.000000,104.176537 115.000000,94.901642 114.999908,84.655434 
z"/>
<path fill="#C3F0CA" opacity="1.000000" stroke="none" 
	d="
M159.055344,179.344940 
	C159.530746,180.407379 159.981262,181.911636 160.528778,183.739746 
	C171.268204,183.739746 182.344940,183.739746 193.711746,183.739746 
	C193.711746,124.629669 193.711746,65.586761 193.711746,6.011114 
	C183.042740,6.011114 172.437012,5.961111 161.834579,6.124674 
	C161.134735,6.135470 160.460022,7.774897 159.427261,8.876409 
	C158.603012,6.139071 159.673172,4.943653 162.844223,4.950068 
	C201.978806,5.029241 241.113632,5.020882 280.248291,4.963087 
	C283.035553,4.958971 284.072998,5.913220 284.039856,8.727547 
	C283.927979,18.218481 283.846161,27.715055 284.065643,37.202236 
	C284.165375,41.515034 281.499146,41.005402 278.818756,41.004581 
	C253.006470,40.996677 227.194183,40.998394 201.381897,41.001110 
	C195.005936,41.001781 195.004730,41.008053 195.000473,47.592297 
	C194.998001,51.422504 195.264984,55.276157 194.928543,59.076572 
	C194.565369,63.178818 196.234085,64.103073 200.060120,64.075203 
	C221.541458,63.918762 243.025818,64.122803 264.505951,63.898621 
	C268.913177,63.852623 270.282471,65.047310 270.100708,69.486946 
	C269.753571,77.965805 269.824677,86.474197 270.078339,94.959686 
	C270.194122,98.833115 269.102173,100.127357 265.060486,100.089699 
	C244.245926,99.895790 223.428558,99.975708 202.612259,100.011604 
	C193.979263,100.026489 195.026917,99.095039 195.013046,107.859924 
	C194.975082,131.840302 194.903046,155.821548 195.091034,179.800507 
	C195.124039,184.010254 193.830063,185.198517 189.720184,185.087326 
	C179.766205,184.818039 169.800034,184.999847 159.351364,184.999847 
	C159.226410,182.970001 159.128433,181.378372 159.055344,179.344940 
M225.500000,6.000000 
	C215.421051,6.000000 205.342102,6.000000 195.332809,6.000000 
	C195.332809,17.677464 195.332809,28.723110 195.332809,39.686047 
	C224.686478,39.686047 253.706268,39.686047 282.667542,39.686047 
	C282.667542,28.323265 282.667542,17.277632 282.667542,6.000000 
	C263.724060,6.000000 245.112030,6.000000 225.500000,6.000000 
M269.000000,85.491707 
	C269.000000,78.741470 269.000000,71.991234 269.000000,65.306961 
	C243.998566,65.306961 219.643158,65.306961 195.322617,65.306961 
	C195.322617,76.660484 195.322617,87.703979 195.322617,98.692795 
	C220.001892,98.692795 244.357285,98.692795 269.000000,98.692795 
	C269.000000,94.423279 269.000000,90.455742 269.000000,85.491707 
z"/>
<path fill="#E53170" opacity="1.000000" stroke="none" 
	d="
M116.000000,84.000000 
	C116.000000,57.887039 116.000000,32.274075 116.000000,6.331415 
	C127.731567,6.331415 139.102341,6.331415 150.737701,6.331415 
	C150.737701,65.387367 150.737701,124.273666 150.737701,183.580170 
	C139.452194,183.580170 128.079239,183.580170 116.000000,183.580170 
	C116.000000,150.619827 116.000000,117.559914 116.000000,84.000000 
z"/>
<path fill="#E53170" opacity="1.000000" stroke="none" 
	d="
M6.000000,75.000000 
	C6.000000,51.884956 6.000000,29.269911 6.000000,6.328386 
	C17.404638,6.328386 28.442255,6.328386 39.741005,6.328386 
	C39.741005,65.393829 39.741005,124.279900 39.741005,183.583160 
	C28.779255,183.583160 17.739386,183.583160 6.000000,183.583160 
	C6.000000,147.615112 6.000000,111.557556 6.000000,75.000000 
z"/>
<path fill="#E53170" opacity="1.000000" stroke="none" 
	d="
M114.999954,85.141083 
	C115.000000,94.901642 115.000000,104.176537 115.000000,113.722183 
	C90.301964,113.722183 66.072166,113.722183 41.420723,113.722183 
	C41.420723,102.794334 41.420723,91.760826 41.420723,80.361267 
	C65.647995,80.361267 89.995277,80.361267 114.706779,80.361267 
	C114.803642,81.780296 114.901772,83.217865 114.999954,85.141083 
z"/>
<path fill="#33272A" opacity="1.000000" stroke="none" 
	d="
M226.000000,6.000000 
	C245.112030,6.000000 263.724060,6.000000 282.667542,6.000000 
	C282.667542,17.277632 282.667542,28.323265 282.667542,39.686047 
	C253.706268,39.686047 224.686478,39.686047 195.332809,39.686047 
	C195.332809,28.723110 195.332809,17.677464 195.332809,6.000000 
	C205.342102,6.000000 215.421051,6.000000 226.000000,6.000000 
z"/>
<path fill="#33272A" opacity="1.000000" stroke="none" 
	d="
M269.000000,85.989960 
	C269.000000,90.455742 269.000000,94.423279 269.000000,98.692795 
	C244.357285,98.692795 220.001892,98.692795 195.322617,98.692795 
	C195.322617,87.703979 195.322617,76.660484 195.322617,65.306961 
	C219.643158,65.306961 243.998566,65.306961 269.000000,65.306961 
	C269.000000,71.991234 269.000000,78.741470 269.000000,85.989960 
z"/>
</svg>